<?xml version="1.0" encoding="UTF-8" standalone="no"?>
<!DOCTYPE svg PUBLIC "-//W3C//DTD SVG 1.1//EN"
 "http://www.w3.org/Graphics/SVG/1.1/DTD/svg11.dtd">
<!-- Generated by graphviz version 2.38.0 (20140413.2041)
 -->
<!-- Title: Tree Pages: 1 -->
<svg width="662pt" height="1126pt"
 viewBox="0.00 0.00 662.00 1126.00" xmlns="http://www.w3.org/2000/svg" xmlns:xlink="http://www.w3.org/1999/xlink">
<g id="graph0" class="graph" transform="scale(1 1) rotate(0) translate(4 1122)">
<title>Tree</title>
<polygon fill="white" stroke="none" points="-4,4 -4,-1122 658,-1122 658,4 -4,4"/>
<!-- 0 -->
<g id="node1" class="node"><title>0</title>
<polygon fill="#e58139" fill-opacity="0.725490" stroke="black" points="107,-592.5 0,-592.5 0,-524.5 107,-524.5 107,-592.5"/>
<text text-anchor="start" x="8" y="-577.3" font-family="Times New Roman,serif" font-size="14.00">Length3 ≤ 27.95</text>
<text text-anchor="start" x="18.5" y="-562.3" font-family="Times New Roman,serif" font-size="14.00">mse = 1.617</text>
<text text-anchor="start" x="16" y="-547.3" font-family="Times New Roman,serif" font-size="14.00">samples = 88</text>
<text text-anchor="start" x="15.5" y="-532.3" font-family="Times New Roman,serif" font-size="14.00">value = 5.532</text>
</g>
<!-- 1 -->
<g id="node2" class="node"><title>1</title>
<polygon fill="#e58139" fill-opacity="0.494118" stroke="black" points="240,-734.5 143,-734.5 143,-666.5 240,-666.5 240,-734.5"/>
<text text-anchor="start" x="151" y="-719.3" font-family="Times New Roman,serif" font-size="14.00">Width ≤ 2.168</text>
<text text-anchor="start" x="156.5" y="-704.3" font-family="Times New Roman,serif" font-size="14.00">mse = 1.054</text>
<text text-anchor="start" x="154" y="-689.3" font-family="Times New Roman,serif" font-size="14.00">samples = 40</text>
<text text-anchor="start" x="153.5" y="-674.3" font-family="Times New Roman,serif" font-size="14.00">value = 4.346</text>
</g>
<!-- 0&#45;&gt;1 -->
<g id="edge1" class="edge"><title>0&#45;&gt;1</title>
<path fill="none" stroke="black" d="M87.0754,-592.513C106.196,-612.476 130.5,-637.853 150.743,-658.989"/>
<polygon fill="black" stroke="black" points="148.274,-661.472 157.719,-666.273 153.33,-656.63 148.274,-661.472"/>
<text text-anchor="middle" x="132.725" y="-662.033" font-family="Times New Roman,serif" font-size="14.00">True</text>
</g>
<!-- 16 -->
<g id="node17" class="node"><title>16</title>
<polygon fill="#e58139" fill-opacity="0.890196" stroke="black" points="240,-451.5 143,-451.5 143,-383.5 240,-383.5 240,-451.5"/>
<text text-anchor="start" x="151" y="-436.3" font-family="Times New Roman,serif" font-size="14.00">Width ≤ 4.821</text>
<text text-anchor="start" x="160" y="-421.3" font-family="Times New Roman,serif" font-size="14.00">mse = 0.25</text>
<text text-anchor="start" x="154" y="-406.3" font-family="Times New Roman,serif" font-size="14.00">samples = 48</text>
<text text-anchor="start" x="153.5" y="-391.3" font-family="Times New Roman,serif" font-size="14.00">value = 6.398</text>
</g>
<!-- 0&#45;&gt;16 -->
<g id="edge16" class="edge"><title>0&#45;&gt;16</title>
<path fill="none" stroke="black" d="M87.4218,-524.368C106.326,-504.769 130.21,-480.006 150.227,-459.254"/>
<polygon fill="black" stroke="black" points="152.987,-461.434 157.41,-451.807 147.949,-456.574 152.987,-461.434"/>
<text text-anchor="middle" x="132.414" y="-448.558" font-family="Times New Roman,serif" font-size="14.00">False</text>
</g>
<!-- 2 -->
<g id="node3" class="node"><title>2</title>
<polygon fill="#e58139" fill-opacity="0.082353" stroke="black" points="380,-940.5 279,-940.5 279,-872.5 380,-872.5 380,-940.5"/>
<text text-anchor="start" x="287" y="-925.3" font-family="Times New Roman,serif" font-size="14.00">Length1 ≤ 10.4</text>
<text text-anchor="start" x="294.5" y="-910.3" font-family="Times New Roman,serif" font-size="14.00">mse = 0.127</text>
<text text-anchor="start" x="295.5" y="-895.3" font-family="Times New Roman,serif" font-size="14.00">samples = 7</text>
<text text-anchor="start" x="291.5" y="-880.3" font-family="Times New Roman,serif" font-size="14.00">value = 2.208</text>
</g>
<!-- 1&#45;&gt;2 -->
<g id="edge2" class="edge"><title>1&#45;&gt;2</title>
<path fill="none" stroke="black" d="M214.958,-734.517C238.384,-770.001 275.158,-825.703 300.473,-864.047"/>
<polygon fill="black" stroke="black" points="297.579,-866.016 306.009,-872.433 303.42,-862.159 297.579,-866.016"/>
</g>
<!-- 9 -->
<g id="node10" class="node"><title>9</title>
<polygon fill="#e58139" fill-opacity="0.572549" stroke="black" points="383,-734.5 276,-734.5 276,-666.5 383,-666.5 383,-734.5"/>
<text text-anchor="start" x="284" y="-719.3" font-family="Times New Roman,serif" font-size="14.00">Length2 ≤ 20.35</text>
<text text-anchor="start" x="294.5" y="-704.3" font-family="Times New Roman,serif" font-size="14.00">mse = 0.211</text>
<text text-anchor="start" x="292" y="-689.3" font-family="Times New Roman,serif" font-size="14.00">samples = 33</text>
<text text-anchor="start" x="291.5" y="-674.3" font-family="Times New Roman,serif" font-size="14.00">value = 4.746</text>
</g>
<!-- 1&#45;&gt;9 -->
<g id="edge9" class="edge"><title>1&#45;&gt;9</title>
<path fill="none" stroke="black" d="M240.066,-700.5C248.324,-700.5 257.026,-700.5 265.618,-700.5"/>
<polygon fill="black" stroke="black" points="265.621,-704 275.621,-700.5 265.621,-697 265.621,-704"/>
</g>
<!-- 3 -->
<g id="node4" class="node"><title>3</title>
<polygon fill="#e58139" fill-opacity="0.019608" stroke="black" points="521.5,-1054.5 423.5,-1054.5 423.5,-986.5 521.5,-986.5 521.5,-1054.5"/>
<text text-anchor="start" x="431.5" y="-1039.3" font-family="Times New Roman,serif" font-size="14.00">Height ≤ 1.925</text>
<text text-anchor="start" x="437.5" y="-1024.3" font-family="Times New Roman,serif" font-size="14.00">mse = 0.004</text>
<text text-anchor="start" x="438.5" y="-1009.3" font-family="Times New Roman,serif" font-size="14.00">samples = 3</text>
<text text-anchor="start" x="434.5" y="-994.3" font-family="Times New Roman,serif" font-size="14.00">value = 1.881</text>
</g>
<!-- 2&#45;&gt;3 -->
<g id="edge3" class="edge"><title>2&#45;&gt;3</title>
<path fill="none" stroke="black" d="M372.805,-940.704C388.002,-952.991 405.291,-966.97 421.108,-979.757"/>
<polygon fill="black" stroke="black" points="419.248,-982.755 429.225,-986.32 423.649,-977.311 419.248,-982.755"/>
</g>
<!-- 6 -->
<g id="node7" class="node"><title>6</title>
<polygon fill="#e58139" fill-opacity="0.133333" stroke="black" points="521,-940.5 424,-940.5 424,-872.5 521,-872.5 521,-940.5"/>
<text text-anchor="start" x="432" y="-925.3" font-family="Times New Roman,serif" font-size="14.00">Width ≤ 1.672</text>
<text text-anchor="start" x="437.5" y="-910.3" font-family="Times New Roman,serif" font-size="14.00">mse = 0.072</text>
<text text-anchor="start" x="438.5" y="-895.3" font-family="Times New Roman,serif" font-size="14.00">samples = 4</text>
<text text-anchor="start" x="438" y="-880.3" font-family="Times New Roman,serif" font-size="14.00">value = 2.47</text>
</g>
<!-- 2&#45;&gt;6 -->
<g id="edge6" class="edge"><title>2&#45;&gt;6</title>
<path fill="none" stroke="black" d="M380.211,-906.5C391.017,-906.5 402.537,-906.5 413.627,-906.5"/>
<polygon fill="black" stroke="black" points="413.658,-910 423.658,-906.5 413.658,-903 413.658,-910"/>
</g>
<!-- 4 -->
<g id="node5" class="node"><title>4</title>
<polygon fill="#e58139" fill-opacity="0.027451" stroke="black" points="654,-1118 562,-1118 562,-1065 654,-1065 654,-1118"/>
<text text-anchor="start" x="580" y="-1102.8" font-family="Times New Roman,serif" font-size="14.00">mse = 0.0</text>
<text text-anchor="start" x="574" y="-1087.8" font-family="Times New Roman,serif" font-size="14.00">samples = 2</text>
<text text-anchor="start" x="570" y="-1072.8" font-family="Times New Roman,serif" font-size="14.00">value = 1.917</text>
</g>
<!-- 3&#45;&gt;4 -->
<g id="edge4" class="edge"><title>3&#45;&gt;4</title>
<path fill="none" stroke="black" d="M521.697,-1046.13C531.863,-1051.54 542.654,-1057.28 553.018,-1062.79"/>
<polygon fill="black" stroke="black" points="551.517,-1065.96 561.989,-1067.56 554.804,-1059.78 551.517,-1065.96"/>
</g>
<!-- 5 -->
<g id="node6" class="node"><title>5</title>
<polygon fill="none" stroke="black" points="654,-1047 562,-1047 562,-994 654,-994 654,-1047"/>
<text text-anchor="start" x="580" y="-1031.8" font-family="Times New Roman,serif" font-size="14.00">mse = 0.0</text>
<text text-anchor="start" x="574" y="-1016.8" font-family="Times New Roman,serif" font-size="14.00">samples = 1</text>
<text text-anchor="start" x="570" y="-1001.8" font-family="Times New Roman,serif" font-size="14.00">value = 1.775</text>
</g>
<!-- 3&#45;&gt;5 -->
<g id="edge5" class="edge"><title>3&#45;&gt;5</title>
<path fill="none" stroke="black" d="M521.697,-1020.5C531.452,-1020.5 541.783,-1020.5 551.759,-1020.5"/>
<polygon fill="black" stroke="black" points="551.989,-1024 561.989,-1020.5 551.989,-1017 551.989,-1024"/>
</g>
<!-- 7 -->
<g id="node8" class="node"><title>7</title>
<polygon fill="#e58139" fill-opacity="0.109804" stroke="black" points="654,-976 562,-976 562,-923 654,-923 654,-976"/>
<text text-anchor="start" x="573" y="-960.8" font-family="Times New Roman,serif" font-size="14.00">mse = 0.008</text>
<text text-anchor="start" x="574" y="-945.8" font-family="Times New Roman,serif" font-size="14.00">samples = 3</text>
<text text-anchor="start" x="570" y="-930.8" font-family="Times New Roman,serif" font-size="14.00">value = 2.342</text>
</g>
<!-- 6&#45;&gt;7 -->
<g id="edge7" class="edge"><title>6&#45;&gt;7</title>
<path fill="none" stroke="black" d="M521.319,-921.903C531.298,-925.117 541.892,-928.529 552.104,-931.818"/>
<polygon fill="black" stroke="black" points="551.153,-935.189 561.745,-934.923 553.299,-928.526 551.153,-935.189"/>
</g>
<!-- 8 -->
<g id="node9" class="node"><title>8</title>
<polygon fill="#e58139" fill-opacity="0.231373" stroke="black" points="654,-905 562,-905 562,-852 654,-852 654,-905"/>
<text text-anchor="start" x="577.5" y="-889.8" font-family="Times New Roman,serif" font-size="14.00">mse = &#45;0.0</text>
<text text-anchor="start" x="574" y="-874.8" font-family="Times New Roman,serif" font-size="14.00">samples = 1</text>
<text text-anchor="start" x="570" y="-859.8" font-family="Times New Roman,serif" font-size="14.00">value = 2.981</text>
</g>
<!-- 6&#45;&gt;8 -->
<g id="edge8" class="edge"><title>6&#45;&gt;8</title>
<path fill="none" stroke="black" d="M521.319,-896.47C531.195,-894.399 541.674,-892.201 551.788,-890.08"/>
<polygon fill="black" stroke="black" points="552.676,-893.47 561.745,-887.992 551.239,-886.619 552.676,-893.47"/>
</g>
<!-- 10 -->
<g id="node11" class="node"><title>10</title>
<polygon fill="#e58139" fill-opacity="0.474510" stroke="black" points="526,-777.5 419,-777.5 419,-709.5 526,-709.5 526,-777.5"/>
<text text-anchor="start" x="427" y="-762.3" font-family="Times New Roman,serif" font-size="14.00">Length3 ≤ 17.95</text>
<text text-anchor="start" x="437.5" y="-747.3" font-family="Times New Roman,serif" font-size="14.00">mse = 0.106</text>
<text text-anchor="start" x="435" y="-732.3" font-family="Times New Roman,serif" font-size="14.00">samples = 11</text>
<text text-anchor="start" x="438" y="-717.3" font-family="Times New Roman,serif" font-size="14.00">value = 4.23</text>
</g>
<!-- 9&#45;&gt;10 -->
<g id="edge10" class="edge"><title>9&#45;&gt;10</title>
<path fill="none" stroke="black" d="M383.003,-716.512C391.536,-719.114 400.447,-721.831 409.187,-724.497"/>
<polygon fill="black" stroke="black" points="408.367,-727.906 418.953,-727.475 410.409,-721.21 408.367,-727.906"/>
</g>
<!-- 13 -->
<g id="node14" class="node"><title>13</title>
<polygon fill="#e58139" fill-opacity="0.627451" stroke="black" points="523,-691.5 422,-691.5 422,-623.5 523,-623.5 523,-691.5"/>
<text text-anchor="start" x="430" y="-676.3" font-family="Times New Roman,serif" font-size="14.00">Length3 ≤ 24.4</text>
<text text-anchor="start" x="437.5" y="-661.3" font-family="Times New Roman,serif" font-size="14.00">mse = 0.041</text>
<text text-anchor="start" x="435" y="-646.3" font-family="Times New Roman,serif" font-size="14.00">samples = 22</text>
<text text-anchor="start" x="438" y="-631.3" font-family="Times New Roman,serif" font-size="14.00">value = 5.03</text>
</g>
<!-- 9&#45;&gt;13 -->
<g id="edge13" class="edge"><title>9&#45;&gt;13</title>
<path fill="none" stroke="black" d="M383.003,-684.488C392.516,-681.587 402.498,-678.543 412.19,-675.587"/>
<polygon fill="black" stroke="black" points="413.214,-678.935 421.758,-672.67 411.172,-672.239 413.214,-678.935"/>
</g>
<!-- 11 -->
<g id="node12" class="node"><title>11</title>
<polygon fill="#e58139" fill-opacity="0.396078" stroke="black" points="654,-834 562,-834 562,-781 654,-781 654,-834"/>
<text text-anchor="start" x="573" y="-818.8" font-family="Times New Roman,serif" font-size="14.00">mse = 0.026</text>
<text text-anchor="start" x="574" y="-803.8" font-family="Times New Roman,serif" font-size="14.00">samples = 3</text>
<text text-anchor="start" x="570" y="-788.8" font-family="Times New Roman,serif" font-size="14.00">value = 3.841</text>
</g>
<!-- 10&#45;&gt;11 -->
<g id="edge11" class="edge"><title>10&#45;&gt;11</title>
<path fill="none" stroke="black" d="M526.263,-768.794C535.026,-772.995 544.125,-777.358 552.92,-781.574"/>
<polygon fill="black" stroke="black" points="551.418,-784.735 561.948,-785.902 554.444,-778.423 551.418,-784.735"/>
</g>
<!-- 12 -->
<g id="node13" class="node"><title>12</title>
<polygon fill="#e58139" fill-opacity="0.513725" stroke="black" points="654,-763 562,-763 562,-710 654,-710 654,-763"/>
<text text-anchor="start" x="573" y="-747.8" font-family="Times New Roman,serif" font-size="14.00">mse = 0.022</text>
<text text-anchor="start" x="574" y="-732.8" font-family="Times New Roman,serif" font-size="14.00">samples = 8</text>
<text text-anchor="start" x="570" y="-717.8" font-family="Times New Roman,serif" font-size="14.00">value = 4.442</text>
</g>
<!-- 10&#45;&gt;12 -->
<g id="edge12" class="edge"><title>10&#45;&gt;12</title>
<path fill="none" stroke="black" d="M526.263,-740.733C534.657,-740.293 543.36,-739.837 551.808,-739.394"/>
<polygon fill="black" stroke="black" points="552.145,-742.881 561.948,-738.862 551.779,-735.891 552.145,-742.881"/>
</g>
<!-- 14 -->
<g id="node15" class="node"><title>14</title>
<polygon fill="#e58139" fill-opacity="0.588235" stroke="black" points="654,-692 562,-692 562,-639 654,-639 654,-692"/>
<text text-anchor="start" x="573" y="-676.8" font-family="Times New Roman,serif" font-size="14.00">mse = 0.008</text>
<text text-anchor="start" x="574" y="-661.8" font-family="Times New Roman,serif" font-size="14.00">samples = 9</text>
<text text-anchor="start" x="570" y="-646.8" font-family="Times New Roman,serif" font-size="14.00">value = 4.831</text>
</g>
<!-- 13&#45;&gt;14 -->
<g id="edge14" class="edge"><title>13&#45;&gt;14</title>
<path fill="none" stroke="black" d="M523.21,-660.479C532.465,-661.034 542.189,-661.616 551.602,-662.18"/>
<polygon fill="black" stroke="black" points="551.466,-665.678 561.657,-662.783 551.885,-658.691 551.466,-665.678"/>
</g>
<!-- 15 -->
<g id="node16" class="node"><title>15</title>
<polygon fill="#e58139" fill-opacity="0.654902" stroke="black" points="654,-621 562,-621 562,-568 654,-568 654,-621"/>
<text text-anchor="start" x="573" y="-605.8" font-family="Times New Roman,serif" font-size="14.00">mse = 0.017</text>
<text text-anchor="start" x="570.5" y="-590.8" font-family="Times New Roman,serif" font-size="14.00">samples = 13</text>
<text text-anchor="start" x="570" y="-575.8" font-family="Times New Roman,serif" font-size="14.00">value = 5.174</text>
</g>
<!-- 13&#45;&gt;15 -->
<g id="edge15" class="edge"><title>13&#45;&gt;15</title>
<path fill="none" stroke="black" d="M523.21,-634.041C532.761,-629.534 542.81,-624.792 552.502,-620.218"/>
<polygon fill="black" stroke="black" points="554.108,-623.331 561.657,-615.898 551.12,-617 554.108,-623.331"/>
</g>
<!-- 17 -->
<g id="node18" class="node"><title>17</title>
<polygon fill="#e58139" fill-opacity="0.760784" stroke="black" points="383,-451.5 276,-451.5 276,-383.5 383,-383.5 383,-451.5"/>
<text text-anchor="start" x="284" y="-436.3" font-family="Times New Roman,serif" font-size="14.00">Length3 ≤ 42.65</text>
<text text-anchor="start" x="294.5" y="-421.3" font-family="Times New Roman,serif" font-size="14.00">mse = 0.043</text>
<text text-anchor="start" x="292" y="-406.3" font-family="Times New Roman,serif" font-size="14.00">samples = 16</text>
<text text-anchor="start" x="295" y="-391.3" font-family="Times New Roman,serif" font-size="14.00">value = 5.72</text>
</g>
<!-- 16&#45;&gt;17 -->
<g id="edge17" class="edge"><title>16&#45;&gt;17</title>
<path fill="none" stroke="black" d="M240.066,-417.5C248.324,-417.5 257.026,-417.5 265.618,-417.5"/>
<polygon fill="black" stroke="black" points="265.621,-421 275.621,-417.5 265.621,-414 265.621,-421"/>
</g>
<!-- 24 -->
<g id="node25" class="node"><title>24</title>
<polygon fill="#e58139" fill-opacity="0.945098" stroke="black" points="378,-245.5 281,-245.5 281,-177.5 378,-177.5 378,-245.5"/>
<text text-anchor="start" x="289" y="-230.3" font-family="Times New Roman,serif" font-size="14.00">Width ≤ 6.137</text>
<text text-anchor="start" x="294.5" y="-215.3" font-family="Times New Roman,serif" font-size="14.00">mse = 0.064</text>
<text text-anchor="start" x="292" y="-200.3" font-family="Times New Roman,serif" font-size="14.00">samples = 32</text>
<text text-anchor="start" x="291.5" y="-185.3" font-family="Times New Roman,serif" font-size="14.00">value = 6.682</text>
</g>
<!-- 16&#45;&gt;24 -->
<g id="edge24" class="edge"><title>16&#45;&gt;24</title>
<path fill="none" stroke="black" d="M214.958,-383.483C238.384,-347.999 275.158,-292.297 300.473,-253.953"/>
<polygon fill="black" stroke="black" points="303.42,-255.841 306.009,-245.567 297.579,-251.984 303.42,-255.841"/>
</g>
<!-- 18 -->
<g id="node19" class="node"><title>18</title>
<polygon fill="#e58139" fill-opacity="0.752941" stroke="black" points="525,-494.5 420,-494.5 420,-426.5 525,-426.5 525,-494.5"/>
<text text-anchor="start" x="428" y="-479.3" font-family="Times New Roman,serif" font-size="14.00">Height ≤ 13.069</text>
<text text-anchor="start" x="437.5" y="-464.3" font-family="Times New Roman,serif" font-size="14.00">mse = 0.025</text>
<text text-anchor="start" x="435" y="-449.3" font-family="Times New Roman,serif" font-size="14.00">samples = 14</text>
<text text-anchor="start" x="434.5" y="-434.3" font-family="Times New Roman,serif" font-size="14.00">value = 5.677</text>
</g>
<!-- 17&#45;&gt;18 -->
<g id="edge18" class="edge"><title>17&#45;&gt;18</title>
<path fill="none" stroke="black" d="M383.003,-433.512C391.858,-436.212 401.119,-439.036 410.175,-441.798"/>
<polygon fill="black" stroke="black" points="409.305,-445.192 419.891,-444.761 411.347,-438.496 409.305,-445.192"/>
</g>
<!-- 21 -->
<g id="node22" class="node"><title>21</title>
<polygon fill="#e58139" fill-opacity="0.847059" stroke="black" points="521,-408.5 424,-408.5 424,-340.5 521,-340.5 521,-408.5"/>
<text text-anchor="start" x="432" y="-393.3" font-family="Times New Roman,serif" font-size="14.00">Width ≤ 4.391</text>
<text text-anchor="start" x="437.5" y="-378.3" font-family="Times New Roman,serif" font-size="14.00">mse = 0.003</text>
<text text-anchor="start" x="438.5" y="-363.3" font-family="Times New Roman,serif" font-size="14.00">samples = 2</text>
<text text-anchor="start" x="434.5" y="-348.3" font-family="Times New Roman,serif" font-size="14.00">value = 6.178</text>
</g>
<!-- 17&#45;&gt;21 -->
<g id="edge21" class="edge"><title>17&#45;&gt;21</title>
<path fill="none" stroke="black" d="M383.003,-401.488C393.09,-398.412 403.704,-395.175 413.941,-392.054"/>
<polygon fill="black" stroke="black" points="415.066,-395.37 423.61,-389.105 413.024,-388.674 415.066,-395.37"/>
</g>
<!-- 19 -->
<g id="node20" class="node"><title>19</title>
<polygon fill="#e58139" fill-opacity="0.745098" stroke="black" points="653.5,-550 562.5,-550 562.5,-497 653.5,-497 653.5,-550"/>
<text text-anchor="start" x="573" y="-534.8" font-family="Times New Roman,serif" font-size="14.00">mse = 0.011</text>
<text text-anchor="start" x="570.5" y="-519.8" font-family="Times New Roman,serif" font-size="14.00">samples = 13</text>
<text text-anchor="start" x="573.5" y="-504.8" font-family="Times New Roman,serif" font-size="14.00">value = 5.65</text>
</g>
<!-- 18&#45;&gt;19 -->
<g id="edge19" class="edge"><title>18&#45;&gt;19</title>
<path fill="none" stroke="black" d="M525.115,-484.857C534.36,-489.22 544.013,-493.776 553.315,-498.166"/>
<polygon fill="black" stroke="black" points="551.934,-501.384 562.471,-502.486 554.921,-495.053 551.934,-501.384"/>
</g>
<!-- 20 -->
<g id="node21" class="node"><title>20</title>
<polygon fill="#e58139" fill-opacity="0.854902" stroke="black" points="654,-479 562,-479 562,-426 654,-426 654,-479"/>
<text text-anchor="start" x="580" y="-463.8" font-family="Times New Roman,serif" font-size="14.00">mse = 0.0</text>
<text text-anchor="start" x="574" y="-448.8" font-family="Times New Roman,serif" font-size="14.00">samples = 1</text>
<text text-anchor="start" x="570" y="-433.8" font-family="Times New Roman,serif" font-size="14.00">value = 6.215</text>
</g>
<!-- 18&#45;&gt;20 -->
<g id="edge20" class="edge"><title>18&#45;&gt;20</title>
<path fill="none" stroke="black" d="M525.115,-457.407C533.763,-456.889 542.77,-456.349 551.511,-455.825"/>
<polygon fill="black" stroke="black" points="551.841,-459.312 561.614,-455.22 551.422,-452.324 551.841,-459.312"/>
</g>
<!-- 22 -->
<g id="node23" class="node"><title>22</title>
<polygon fill="#e58139" fill-opacity="0.839216" stroke="black" points="654,-408 562,-408 562,-355 654,-355 654,-408"/>
<text text-anchor="start" x="580" y="-392.8" font-family="Times New Roman,serif" font-size="14.00">mse = 0.0</text>
<text text-anchor="start" x="574" y="-377.8" font-family="Times New Roman,serif" font-size="14.00">samples = 1</text>
<text text-anchor="start" x="570" y="-362.8" font-family="Times New Roman,serif" font-size="14.00">value = 6.122</text>
</g>
<!-- 21&#45;&gt;22 -->
<g id="edge22" class="edge"><title>21&#45;&gt;22</title>
<path fill="none" stroke="black" d="M521.319,-377.007C531.092,-377.52 541.456,-378.063 551.472,-378.588"/>
<polygon fill="black" stroke="black" points="551.575,-382.099 561.745,-379.127 551.942,-375.108 551.575,-382.099"/>
</g>
<!-- 23 -->
<g id="node24" class="node"><title>23</title>
<polygon fill="#e58139" fill-opacity="0.858824" stroke="black" points="654,-337 562,-337 562,-284 654,-284 654,-337"/>
<text text-anchor="start" x="580" y="-321.8" font-family="Times New Roman,serif" font-size="14.00">mse = 0.0</text>
<text text-anchor="start" x="574" y="-306.8" font-family="Times New Roman,serif" font-size="14.00">samples = 1</text>
<text text-anchor="start" x="570" y="-291.8" font-family="Times New Roman,serif" font-size="14.00">value = 6.234</text>
</g>
<!-- 21&#45;&gt;23 -->
<g id="edge23" class="edge"><title>21&#45;&gt;23</title>
<path fill="none" stroke="black" d="M521.319,-351.575C531.401,-346.742 542.111,-341.608 552.42,-336.666"/>
<polygon fill="black" stroke="black" points="554.24,-339.674 561.745,-332.195 551.214,-333.362 554.24,-339.674"/>
</g>
<!-- 25 -->
<g id="node26" class="node"><title>25</title>
<polygon fill="#e58139" fill-opacity="0.898039" stroke="black" points="525,-245.5 420,-245.5 420,-177.5 525,-177.5 525,-245.5"/>
<text text-anchor="start" x="428" y="-230.3" font-family="Times New Roman,serif" font-size="14.00">Height ≤ 15.453</text>
<text text-anchor="start" x="437.5" y="-215.3" font-family="Times New Roman,serif" font-size="14.00">mse = 0.017</text>
<text text-anchor="start" x="435" y="-200.3" font-family="Times New Roman,serif" font-size="14.00">samples = 13</text>
<text text-anchor="start" x="434.5" y="-185.3" font-family="Times New Roman,serif" font-size="14.00">value = 6.436</text>
</g>
<!-- 24&#45;&gt;25 -->
<g id="edge25" class="edge"><title>24&#45;&gt;25</title>
<path fill="none" stroke="black" d="M378.236,-211.5C388.408,-211.5 399.287,-211.5 409.894,-211.5"/>
<polygon fill="black" stroke="black" points="409.947,-215 419.947,-211.5 409.947,-208 409.947,-215"/>
</g>
<!-- 28 -->
<g id="node29" class="node"><title>28</title>
<polygon fill="#e58139" fill-opacity="0.976471" stroke="black" points="526,-131.5 419,-131.5 419,-63.5 526,-63.5 526,-131.5"/>
<text text-anchor="start" x="427" y="-116.3" font-family="Times New Roman,serif" font-size="14.00">Length3 ≤ 42.55</text>
<text text-anchor="start" x="437.5" y="-101.3" font-family="Times New Roman,serif" font-size="14.00">mse = 0.028</text>
<text text-anchor="start" x="435" y="-86.3" font-family="Times New Roman,serif" font-size="14.00">samples = 19</text>
<text text-anchor="start" x="434.5" y="-71.3" font-family="Times New Roman,serif" font-size="14.00">value = 6.845</text>
</g>
<!-- 24&#45;&gt;28 -->
<g id="edge28" class="edge"><title>24&#45;&gt;28</title>
<path fill="none" stroke="black" d="M372.805,-177.296C388.002,-165.009 405.291,-151.03 421.108,-138.243"/>
<polygon fill="black" stroke="black" points="423.649,-140.689 429.225,-131.68 419.248,-135.245 423.649,-140.689"/>
</g>
<!-- 26 -->
<g id="node27" class="node"><title>26</title>
<polygon fill="#e58139" fill-opacity="0.882353" stroke="black" points="654,-266 562,-266 562,-213 654,-213 654,-266"/>
<text text-anchor="start" x="573" y="-250.8" font-family="Times New Roman,serif" font-size="14.00">mse = 0.008</text>
<text text-anchor="start" x="574" y="-235.8" font-family="Times New Roman,serif" font-size="14.00">samples = 8</text>
<text text-anchor="start" x="570" y="-220.8" font-family="Times New Roman,serif" font-size="14.00">value = 6.347</text>
</g>
<!-- 25&#45;&gt;26 -->
<g id="edge26" class="edge"><title>25&#45;&gt;26</title>
<path fill="none" stroke="black" d="M525.115,-222.326C533.857,-224.159 542.966,-226.07 551.796,-227.922"/>
<polygon fill="black" stroke="black" points="551.108,-231.353 561.614,-229.981 552.545,-224.503 551.108,-231.353"/>
</g>
<!-- 27 -->
<g id="node28" class="node"><title>27</title>
<polygon fill="#e58139" fill-opacity="0.921569" stroke="black" points="654,-195 562,-195 562,-142 654,-142 654,-195"/>
<text text-anchor="start" x="580" y="-179.8" font-family="Times New Roman,serif" font-size="14.00">mse = 0.0</text>
<text text-anchor="start" x="574" y="-164.8" font-family="Times New Roman,serif" font-size="14.00">samples = 5</text>
<text text-anchor="start" x="570" y="-149.8" font-family="Times New Roman,serif" font-size="14.00">value = 6.565</text>
</g>
<!-- 25&#45;&gt;27 -->
<g id="edge27" class="edge"><title>25&#45;&gt;27</title>
<path fill="none" stroke="black" d="M525.115,-194.875C533.951,-192.029 543.162,-189.062 552.081,-186.189"/>
<polygon fill="black" stroke="black" points="553.168,-189.516 561.614,-183.119 551.022,-182.853 553.168,-189.516"/>
</g>
<!-- 29 -->
<g id="node30" class="node"><title>29</title>
<polygon fill="#e58139" fill-opacity="0.952941" stroke="black" points="654,-124 562,-124 562,-71 654,-71 654,-124"/>
<text text-anchor="start" x="573" y="-108.8" font-family="Times New Roman,serif" font-size="14.00">mse = 0.008</text>
<text text-anchor="start" x="574" y="-93.8" font-family="Times New Roman,serif" font-size="14.00">samples = 8</text>
<text text-anchor="start" x="570" y="-78.8" font-family="Times New Roman,serif" font-size="14.00">value = 6.718</text>
</g>
<!-- 28&#45;&gt;29 -->
<g id="edge29" class="edge"><title>28&#45;&gt;29</title>
<path fill="none" stroke="black" d="M526.263,-97.5C534.657,-97.5 543.36,-97.5 551.808,-97.5"/>
<polygon fill="black" stroke="black" points="551.948,-101 561.948,-97.5 551.948,-94.0001 551.948,-101"/>
</g>
<!-- 30 -->
<g id="node31" class="node"><title>30</title>
<polygon fill="#e58139" stroke="black" points="654,-53 562,-53 562,-0 654,-0 654,-53"/>
<text text-anchor="start" x="573" y="-37.8" font-family="Times New Roman,serif" font-size="14.00">mse = 0.017</text>
<text text-anchor="start" x="570.5" y="-22.8" font-family="Times New Roman,serif" font-size="14.00">samples = 11</text>
<text text-anchor="start" x="570" y="-7.8" font-family="Times New Roman,serif" font-size="14.00">value = 6.966</text>
</g>
<!-- 28&#45;&gt;30 -->
<g id="edge30" class="edge"><title>28&#45;&gt;30</title>
<path fill="none" stroke="black" d="M526.263,-69.4389C535.026,-64.7785 544.125,-59.939 552.92,-55.2615"/>
<polygon fill="black" stroke="black" points="554.763,-58.2458 561.948,-50.46 551.476,-52.0655 554.763,-58.2458"/>
</g>
</g>
</svg>
